<svg version="1.1" id="Layer_1" xmlns="http://www.w3.org/2000/svg" xmlns:xlink="http://www.w3.org/1999/xlink" x="0px" y="0px"
	 width="100px" height="100px" viewBox="0 0 2624 3138" enable-background="new 0 0 2624 3138" xml:space="preserve">
<path fill="#000000" opacity="1.000000" stroke="none" 
	d="
M1154.000000,2.000000 
	C1644.520996,2.000000 2135.041992,2.000000 2626.000000,2.000000 
	C2626.000000,445.389313 2626.000000,888.778748 2625.557129,1333.817871 
	C2607.781982,1325.593506 2590.403564,1315.799438 2573.125000,1305.832153 
	C2483.233887,1253.976562 2393.321289,1202.156738 2303.579102,1150.044189 
	C2296.240723,1145.782959 2290.665283,1146.021118 2283.479492,1150.206421 
	C2215.074463,1190.050537 2146.501709,1229.606079 2077.948242,1269.194946 
	C1978.287231,1326.748169 1878.600708,1384.257568 1778.938843,1441.809204 
	C1777.129150,1442.854370 1775.488037,1444.191162 1773.068970,1445.879883 
	C1775.676758,1447.597900 1777.245117,1448.749878 1778.920288,1449.717041 
	C1809.738525,1467.514282 1840.578003,1485.275024 1871.396484,1503.071899 
	C1947.439697,1546.984741 2023.508057,1590.854126 2099.444336,1634.951172 
	C2105.112793,1638.242920 2109.386719,1638.072876 2114.936279,1634.836792 
	C2160.335938,1608.362915 2205.867676,1582.114868 2251.420410,1555.904663 
	C2264.655518,1548.289429 2278.088623,1541.018921 2291.899902,1533.795166 
	C2292.705078,1534.054199 2293.041748,1534.108643 2293.488770,1535.083618 
	C2293.623291,1660.948975 2293.656982,1785.893555 2293.669434,1910.838257 
	C2293.681396,2031.451904 2293.703613,2152.065430 2293.632080,2272.679199 
	C2293.622803,2288.003662 2295.764404,2284.491699 2282.857422,2291.961670 
	C2245.992676,2313.297607 2209.132080,2334.641357 2172.248779,2355.945068 
	C2039.120728,2432.840088 1905.984253,2509.720947 1772.849976,2586.605469 
	C1683.517944,2638.194336 1594.198242,2689.804688 1504.823608,2741.319580 
	C1497.982056,2745.262939 1490.745850,2748.521240 1483.681519,2751.154297 
	C1483.668213,1904.524414 1483.666870,1058.837891 1483.655640,213.151352 
	C1483.655640,208.156281 1483.515259,203.161194 1483.571533,197.604370 
	C1483.201416,196.503235 1482.700073,195.963867 1481.755249,194.928070 
	C1454.318726,178.768616 1427.349121,163.065323 1400.328247,147.450363 
	C1329.308472,106.409081 1258.265137,65.408554 1187.234741,24.385651 
	C1176.594971,18.240795 1165.951172,12.101823 1155.375732,5.847712 
	C1154.151978,5.124031 1150.956421,4.503891 1154.000000,2.000000 
z"/>
<path fill="#000000" opacity="1.000000" stroke="none" 
	d="
M1476.000000,3140.000000 
	C984.845215,3140.000000 493.690430,3140.000000 2.000000,3140.000000 
	C2.000000,2856.615234 2.000000,2573.229980 2.730624,2288.919678 
	C6.144869,2289.270508 8.927396,2290.374512 11.496472,2291.849854 
	C33.704166,2304.602783 55.879978,2317.411377 78.053085,2330.224609 
	C156.952332,2375.818604 235.844238,2421.425293 314.746521,2467.014404 
	C322.079224,2471.251221 329.465759,2475.394531 338.138123,2480.326904 
	C338.138123,1938.154541 338.138123,1397.684814 338.138123,857.604431 
	C340.215607,856.153320 341.511871,855.096008 342.941956,854.270630 
	C463.271454,784.812195 583.610046,715.369507 703.951477,645.931763 
	C731.956116,629.772888 759.976440,613.641296 787.982971,597.485657 
	C812.286621,583.465942 836.619263,569.495850 860.864563,555.375793 
	C874.793152,547.264099 888.505249,538.780823 902.436523,530.673706 
	C922.310181,519.108521 942.295532,507.735046 962.921631,496.133301 
	C997.736084,476.267731 1031.827026,456.487274 1065.999390,436.848755 
	C1093.264404,421.179810 1120.629028,405.683960 1148.075928,391.034424 
	C1148.246582,396.622009 1148.329468,401.286499 1148.329468,405.950958 
	C1148.335205,1249.410034 1148.350342,2092.869141 1148.127808,2936.328125 
	C1148.125488,2945.113525 1150.657227,2949.775635 1158.361816,2954.181885 
	C1240.661377,3001.249268 1322.705200,3048.763916 1404.825684,3096.144775 
	C1427.012573,3108.945801 1449.267334,3121.631104 1471.333008,3134.637207 
	C1473.118042,3135.689697 1477.784302,3135.411133 1476.000000,3140.000000 
z"/>
<path fill="#9F9F9F" opacity="1.000000" stroke="none" 
	d="
M1476.750000,3140.000000 
	C1477.784302,3135.411133 1473.118042,3135.689697 1471.333008,3134.637207 
	C1449.267334,3121.631104 1427.012573,3108.945801 1404.825684,3096.144775 
	C1322.705200,3048.763916 1240.661377,3001.249268 1158.361816,2954.181885 
	C1150.657227,2949.775635 1148.125488,2945.113525 1148.127808,2936.328125 
	C1148.350342,2092.869141 1148.335205,1249.410034 1148.329468,405.950958 
	C1148.329468,401.286499 1148.246582,396.622009 1148.478516,390.480591 
	C1151.507324,387.164581 1154.166260,385.163391 1157.026489,383.509979 
	C1241.647339,334.593109 1326.270264,285.679291 1410.937866,236.843323 
	C1434.256104,223.393417 1457.717651,210.192047 1481.655762,197.270081 
	C1482.612183,197.831039 1483.026245,197.998581 1483.440430,198.166122 
	C1483.515259,203.161194 1483.655640,208.156281 1483.655640,213.151352 
	C1483.666870,1058.837891 1483.668213,1904.524414 1483.250000,2751.844727 
	C1482.582642,2757.780029 1482.121216,2762.081055 1482.118896,2766.382324 
	C1482.051147,2890.921631 1482.029297,3015.460693 1482.000000,3140.000000 
	C1480.500000,3140.000000 1479.000000,3140.000000 1476.750000,3140.000000 
z"/>
<path fill="#BDBDBC" opacity="1.000000" stroke="none" 
	d="
M962.233215,496.279663 
	C942.295532,507.735046 922.310181,519.108521 902.436523,530.673706 
	C888.505249,538.780823 874.793152,547.264099 860.864563,555.375793 
	C836.619263,569.495850 812.286621,583.465942 787.982971,597.485657 
	C759.976440,613.641296 731.956116,629.772888 703.951477,645.931763 
	C583.610046,715.369507 463.271454,784.812195 342.941956,854.270630 
	C341.511871,855.096008 340.215607,856.153320 338.138123,857.604431 
	C338.138123,1397.684814 338.138123,1938.154541 338.138123,2480.326904 
	C329.465759,2475.394531 322.079224,2471.251221 314.746521,2467.014404 
	C235.844238,2421.425293 156.952332,2375.818604 78.053085,2330.224609 
	C55.879978,2317.411377 33.704166,2304.602783 11.496472,2291.849854 
	C8.927396,2290.374512 6.144869,2289.270508 2.730624,2287.997070 
	C2.000000,1746.624878 2.000000,1205.249756 2.486258,663.623535 
	C6.176237,661.622314 9.417616,659.937378 12.578227,658.112549 
	C101.261223,606.911072 189.922699,555.672302 278.615662,504.488098 
	C379.688751,446.159302 480.784058,387.868927 581.881958,329.583099 
	C597.368652,320.654602 612.921143,311.840179 629.036621,303.359192 
	C712.041321,351.338104 794.469238,398.902222 876.854980,446.539307 
	C905.368286,463.026215 933.776855,479.694305 962.233215,496.279663 
z"/>
<path fill="#818283" opacity="1.000000" stroke="none" 
	d="
M1482.799927,3140.000000 
	C1482.029297,3015.460693 1482.051147,2890.921631 1482.118896,2766.382324 
	C1482.121216,2762.081055 1482.582642,2757.780029 1483.261475,2752.788330 
	C1490.745850,2748.521240 1497.982056,2745.262939 1504.823608,2741.319580 
	C1594.198242,2689.804688 1683.517944,2638.194336 1772.849976,2586.605469 
	C1905.984253,2509.720947 2039.120728,2432.840088 2172.248779,2355.945068 
	C2209.132080,2334.641357 2245.992676,2313.297607 2282.857422,2291.961670 
	C2295.764404,2284.491699 2293.622803,2288.003662 2293.632080,2272.679199 
	C2293.703613,2152.065430 2293.681396,2031.451904 2293.669434,1910.838257 
	C2293.656982,1785.893555 2293.623291,1660.948975 2293.696289,1534.571533 
	C2293.858887,1532.776245 2293.924316,1532.413940 2294.323486,1531.458252 
	C2296.235840,1529.676270 2297.710693,1528.309692 2299.407471,1527.324951 
	C2345.083740,1500.814941 2390.758301,1474.301270 2436.484863,1447.877563 
	C2492.851562,1415.304932 2549.244629,1382.777588 2605.685791,1350.334106 
	C2612.263916,1346.552856 2619.219482,1343.428711 2626.000000,1340.000000 
	C2626.000000,1720.041870 2626.000000,2100.083740 2625.284180,2480.954590 
	C2622.806396,2482.726318 2621.016602,2483.620605 2619.287109,2484.619385 
	C2491.879150,2558.221436 2364.483887,2631.845459 2237.069580,2705.436768 
	C2107.637207,2780.193359 1978.192139,2854.927979 1848.741699,2929.653076 
	C1743.507812,2990.398926 1638.254761,3051.111816 1533.019897,3111.855957 
	C1519.758057,3119.510986 1506.513306,3127.198486 1493.380859,3135.071045 
	C1491.794922,3136.021729 1487.664673,3136.045166 1490.000000,3140.000000 
	C1487.866577,3140.000000 1485.733276,3140.000000 1482.799927,3140.000000 
z"/>
<path fill="#000000" opacity="1.000000" stroke="none" 
	d="
M628.443237,302.973022 
	C612.921143,311.840179 597.368652,320.654602 581.881958,329.583099 
	C480.784058,387.868927 379.688751,446.159302 278.615662,504.488098 
	C189.922699,555.672302 101.261223,606.911072 12.578227,658.112549 
	C9.417616,659.937378 6.176237,661.622314 2.486258,662.686218 
	C2.000000,442.106842 2.000000,222.213684 2.000000,2.000000 
	C382.041718,2.000000 762.083557,2.000000 1143.692871,2.520558 
	C1141.744507,5.485076 1138.377686,8.185170 1134.688232,10.330503 
	C1113.983032,22.370571 1093.187134,34.254623 1072.445557,46.232513 
	C966.154419,107.613945 859.858643,168.987411 753.589783,230.407455 
	C711.840393,254.537323 670.156799,278.781128 628.443237,302.973022 
z"/>
<path fill="#000000" opacity="1.000000" stroke="none" 
	d="
M1490.937256,3140.000000 
	C1487.664673,3136.045166 1491.794922,3136.021729 1493.380859,3135.071045 
	C1506.513306,3127.198486 1519.758057,3119.510986 1533.019897,3111.855957 
	C1638.254761,3051.111816 1743.507812,2990.398926 1848.741699,2929.653076 
	C1978.192139,2854.927979 2107.637207,2780.193359 2237.069580,2705.436768 
	C2364.483887,2631.845459 2491.879150,2558.221436 2619.287109,2484.619385 
	C2621.016602,2483.620605 2622.806396,2482.726318 2625.284180,2481.891602 
	C2626.000000,2701.226318 2626.000000,2920.452637 2626.000000,3140.000000 
	C2247.958252,3140.000000 1869.916504,3140.000000 1490.937256,3140.000000 
z"/>
<path fill="#9F9F9F" opacity="1.000000" stroke="none" 
	d="
M2626.000000,1339.250000 
	C2619.219482,1343.428711 2612.263916,1346.552856 2605.685791,1350.334106 
	C2549.244629,1382.777588 2492.851562,1415.304932 2436.484863,1447.877563 
	C2390.758301,1474.301270 2345.083740,1500.814941 2299.407471,1527.324951 
	C2297.710693,1528.309692 2296.235840,1529.676270 2293.784668,1531.485107 
	C2292.418457,1532.600220 2291.924805,1533.095337 2291.431152,1533.590454 
	C2278.088623,1541.018921 2264.655518,1548.289429 2251.420410,1555.904663 
	C2205.867676,1582.114868 2160.335938,1608.362915 2114.936279,1634.836792 
	C2109.386719,1638.072876 2105.112793,1638.242920 2099.444336,1634.951172 
	C2023.508057,1590.854126 1947.439697,1546.984741 1871.396484,1503.071899 
	C1840.578003,1485.275024 1809.738525,1467.514282 1778.920288,1449.717041 
	C1777.245117,1448.749878 1775.676758,1447.597900 1773.068970,1445.879883 
	C1775.488037,1444.191162 1777.129150,1442.854370 1778.938843,1441.809204 
	C1878.600708,1384.257568 1978.287231,1326.748169 2077.948242,1269.194946 
	C2146.501709,1229.606079 2215.074463,1190.050537 2283.479492,1150.206421 
	C2290.665283,1146.021118 2296.240723,1145.782959 2303.579102,1150.044189 
	C2393.321289,1202.156738 2483.233887,1253.976562 2573.125000,1305.832153 
	C2590.403564,1315.799438 2607.781982,1325.593506 2625.557129,1334.733643 
	C2626.000000,1335.500000 2626.000000,1337.000000 2626.000000,1339.250000 
z"/>
<path fill="#F49824" opacity="1.000000" stroke="none" 
	d="
M629.036621,303.359192 
	C670.156799,278.781128 711.840393,254.537323 753.589783,230.407455 
	C859.858643,168.987411 966.154419,107.613945 1072.445557,46.232513 
	C1093.187134,34.254623 1113.983032,22.370571 1134.688232,10.330503 
	C1138.377686,8.185170 1141.744507,5.485076 1144.630127,2.520558 
	C1146.777832,2.000000 1149.555542,2.000000 1153.166748,2.000000 
	C1150.956421,4.503891 1154.151978,5.124031 1155.375732,5.847712 
	C1165.951172,12.101823 1176.594971,18.240795 1187.234741,24.385651 
	C1258.265137,65.408554 1329.308472,106.409081 1400.328247,147.450363 
	C1427.349121,163.065323 1454.318726,178.768616 1481.436035,195.255371 
	C1481.560303,196.079086 1481.113525,196.876678 1481.113525,196.876678 
	C1457.717651,210.192047 1434.256104,223.393417 1410.937866,236.843323 
	C1326.270264,285.679291 1241.647339,334.593109 1157.026489,383.509979 
	C1154.166260,385.163391 1151.507324,387.164581 1148.352051,389.557434 
	C1120.629028,405.683960 1093.264404,421.179810 1065.999390,436.848755 
	C1031.827026,456.487274 997.736084,476.267731 962.921631,496.133301 
	C933.776855,479.694305 905.368286,463.026215 876.854980,446.539307 
	C794.469238,398.902222 712.041321,351.338104 629.036621,303.359192 
z"/>
<path fill="#777777" opacity="1.000000" stroke="none" 
	d="
M1481.655762,197.270081 
	C1481.113525,196.876678 1481.560303,196.079086 1481.879517,195.751801 
	C1482.700073,195.963867 1483.201416,196.503235 1483.571533,197.604370 
	C1483.026245,197.998581 1482.612183,197.831039 1481.655762,197.270081 
z"/>
<path fill="#202121" opacity="1.000000" stroke="none" 
	d="
M2291.899902,1533.795166 
	C2291.924805,1533.095337 2292.418457,1532.600220 2293.450684,1532.078369 
	C2293.924316,1532.413940 2293.858887,1532.776245 2293.585938,1533.650879 
	C2293.041748,1534.108643 2292.705078,1534.054199 2291.899902,1533.795166 
z"/>
</svg>
